<?xml version="1.0" standalone="no"?>
<!DOCTYPE svg PUBLIC "-//W3C//DTD SVG 20010904//EN"
 "http://www.w3.org/TR/2001/REC-SVG-20010904/DTD/svg10.dtd">
<svg version="1.0" xmlns="http://www.w3.org/2000/svg"
 width="158.1px" height="34.6px" viewBox="0 0 955.000000 267.000000"
 preserveAspectRatio="xMidYMid meet">

<g transform="translate(0.000000,267.000000) scale(0.100000,-0.100000)"
fill="#000000" stroke="none">
<path d="M7540 2540 c-69 -5 -178 -16 -242 -26 l-118 -17 0 -1132 0 -1132 23
-21 c22 -21 31 -22 238 -22 212 0 216 0 237 23 22 23 22 27 22 399 l0 375 153
6 c186 7 284 29 417 94 120 59 235 169 292 278 112 216 131 531 43 748 -93
232 -276 371 -547 417 -87 15 -368 20 -518 10z m420 -480 c71 -20 126 -64 156
-127 26 -51 29 -69 29 -148 -1 -106 -24 -171 -83 -228 -67 -65 -191 -101 -309
-90 l-53 6 0 298 0 298 38 4 c52 7 180 -1 222 -13z"/>
<path d="M5735 2518 c-2 -7 -139 -521 -304 -1143 l-299 -1129 19 -28 20 -28
243 0 242 0 69 290 70 290 252 0 c139 0 253 -2 253 -4 0 -4 139 -535 146 -558
5 -17 26 -18 257 -18 l252 0 17 30 c17 31 17 34 -290 1170 l-307 1140 -318 0
c-245 0 -319 -3 -322 -12z m390 -931 c44 -177 81 -328 83 -334 3 -10 -35 -13
-163 -13 -154 0 -166 1 -161 18 15 45 125 516 136 580 7 39 16 72 19 72 3 0
42 -145 86 -323z"/>
<path d="M8897 2512 c-16 -17 -17 -111 -17 -1154 0 -1087 1 -1136 18 -1151 16
-15 48 -17 239 -17 200 0 221 2 236 18 16 17 17 111 17 1154 0 1087 -1 1136
-18 1151 -16 15 -48 17 -239 17 -200 0 -221 -2 -236 -18z"/>
</g>
</svg>
